<svg id="Layer_1" data-name="Layer 1" xmlns="http://www.w3.org/2000/svg" viewBox="0 0 364.92 164.71">
  <defs>
    <style>
      .cls-1 {
        fill: #fff;
      }
    </style>
  </defs>
  <polygon class="cls-1" points="268.08 109.6 268.05 109.6 268.05 101.32 268.08 109.6"/>
  <path class="cls-1" d="M58.3.92v68.64c0,.45-.37.82-.82.82h-12.45c-.45,0-.82-.37-.82-.82v-28.26c0-.45-.37-.82-.82-.82H14.92c-.45,0-.82.37-.82.82v28.26c0,.45-.37.82-.82.82H.82c-.45,0-.82-.37-.82-.82V.92C0,.47.37.1.82.1h12.45c.45,0,.82.37.82.82v27.26c0,.45.37.82.82.82h28.47c.45,0,.82-.37.82-.82V.92c0-.45.37-.82.82-.82h12.45c.45,0,.82.37.82.82Z"/>
  <path class="cls-1" d="M85.27.1c.45,0,.82.37.82.82v42.68c0,4.77,1.24,8.41,3.73,10.93,2.48,2.52,5.97,3.78,10.47,3.78s8.09-1.26,10.57-3.78c2.48-2.52,3.73-6.16,3.73-10.93V.92c0-.45.37-.82.82-.82h12.55c.45,0,.82.37.82.82v42.58c0,5.98-1.29,11.03-3.88,15.15-2.59,4.13-6.04,7.23-10.37,9.31-4.33,2.08-9.15,3.12-14.45,3.12s-9.99-1.04-14.25-3.12c-4.26-2.08-7.64-5.19-10.12-9.31-2.48-4.13-3.73-9.18-3.73-15.15V.92c0-.45.37-.82.82-.82h12.46Z"/>
  <path class="cls-1" d="M219.01.92v68.64c0,.45-.37.82-.82.82h-12.45c-.45,0-.82-.37-.82-.82V28.82c0-.9-1.24-1.15-1.58-.31l-17.04,41.37c-.13.31-.43.51-.76.51h-9.57c-.33,0-.63-.2-.76-.51l-17.14-41.39c-.34-.83-1.58-.58-1.58.31v40.76c0,.45-.37.82-.82.82h-12.45c-.45,0-.82-.37-.82-.82V.92c0-.45.37-.82.82-.82h14.65c.33,0,.63.2.76.5l21.39,50c.28.66,1.23.66,1.51,0L202.89.6c.13-.3.43-.5.76-.5h14.55c.45,0,.82.37.82.82Z"/>
  <path class="cls-1" d="M364.1,70.39h-12.84c-.28,0-.53-.14-.69-.37l-30.17-45.59c-.45-.68-1.51-.36-1.51.45v44.68c0,.45-.37.82-.82.82h-12.45c-.45,0-.82-.37-.82-.82V.82c0-.45.37-.82.82-.82h12.83c.28,0,.53.14.69.37l30.17,45.68c.45.68,1.51.36,1.51-.45V.82c0-.45.37-.82.82-.82h12.46c.45,0,.82.37.82.82v68.74c0,.45-.37.82-.82.82Z"/>
  <path class="cls-1" d="M16.29,152.82h21.52c.45,0,.82.37.82.82v9.53c0,.45-.37.82-.82.82H2.19c-.45,0-.82-.37-.82-.82v-68.64c0-.45.37-.82.82-.82h12.45c.45,0,.82.37.82.82v57.47c0,.45.37.82.82.82Z"/>
  <path class="cls-1" d="M62.09,160.08c-5.51-3.09-9.87-7.37-13.09-12.84-3.22-5.47-4.83-11.66-4.83-18.58s1.61-13.01,4.83-18.48c3.22-5.47,7.59-9.75,13.09-12.84,5.5-3.09,11.55-4.63,18.13-4.63s12.7,1.54,18.18,4.63c5.47,3.09,9.8,7.37,12.99,12.84,3.19,5.47,4.78,11.63,4.78,18.48s-1.6,13.11-4.78,18.58c-3.19,5.47-7.54,9.75-13.04,12.84-5.51,3.09-11.55,4.63-18.13,4.63s-12.62-1.54-18.13-4.63ZM91.39,149.25c3.22-1.91,5.74-4.65,7.55-8.21,1.81-3.56,2.72-7.69,2.72-12.39s-.91-8.81-2.72-12.34c-1.81-3.52-4.33-6.23-7.55-8.11-3.22-1.88-6.95-2.82-11.18-2.82s-7.97.94-11.23,2.82c-3.26,1.88-5.79,4.58-7.6,8.11-1.81,3.52-2.72,7.64-2.72,12.34s.91,8.83,2.72,12.39c1.81,3.56,4.34,6.29,7.6,8.21,3.26,1.91,7,2.87,11.23,2.87s7.95-.96,11.18-2.87Z"/>
  <path class="cls-1" d="M254.27,126.04c-1.78,3.29-4.57,5.94-8.36,7.95-3.79,2.01-8.58,3.02-14.35,3.02h-10.96c-.45,0-.82.37-.82.82v25.34c0,.45-.37.82-.82.82h-12.45c-.45,0-.82-.37-.82-.82v-68.64c0-.45.37-.82.82-.82h25.06c5.44,0,10.07.94,13.9,2.82,3.83,1.88,6.7,4.47,8.61,7.75,1.91,3.29,2.87,7.02,2.87,11.18,0,3.76-.89,7.28-2.67,10.57ZM239.62,122.97c1.88-1.78,2.82-4.28,2.82-7.5,0-6.85-3.83-10.27-11.48-10.27h-10.36c-.45,0-.82.37-.82.82v18.8c0,.45.37.82.82.82h10.36c3.89,0,6.78-.89,8.66-2.67Z"/>
  <path class="cls-1" d="M277.93,162.19c-3.93-1.68-7.03-4.09-9.31-7.25-2.13-2.94-3.29-6.38-3.5-10.31-.02-.47.36-.86.83-.86h13.51c.42,0,.76.32.81.74.31,2.54,1.31,4.58,3,6.11,1.85,1.68,4.38,2.52,7.6,2.52s5.87-.79,7.75-2.37c1.88-1.58,2.82-3.64,2.82-6.19,0-2.08-.64-3.79-1.91-5.14-1.28-1.34-2.87-2.4-4.78-3.17-1.91-.77-4.55-1.63-7.9-2.57-4.57-1.34-8.27-2.67-11.13-3.98-2.85-1.31-5.3-3.29-7.35-5.94-2.05-2.65-3.07-6.19-3.07-10.62,0-4.16,1.04-7.79,3.12-10.88,2.08-3.09,5-5.45,8.76-7.1,3.76-1.64,8.06-2.47,12.89-2.47,7.25,0,13.14,1.76,17.67,5.29,4.31,3.35,6.78,7.97,7.42,13.84.05.48-.34.91-.83.91h-13.86c-.42,0-.75-.32-.81-.74-.29-2.09-1.28-3.84-3-5.25-1.91-1.58-4.45-2.37-7.6-2.37-2.75,0-4.95.71-6.6,2.11-1.65,1.41-2.47,3.46-2.47,6.14,0,1.88.62,3.44,1.86,4.68,1.24,1.24,2.78,2.25,4.63,3.02,1.85.77,4.45,1.66,7.8,2.67,4.56,1.34,8.29,2.69,11.18,4.03,2.89,1.34,5.37,3.36,7.45,6.04,2.26,2.92,3.3,6.83,3.1,11.73-.03.73-.11,1.47-.24,2.18-1.27,6.73-5,11.67-11.21,14.83-3.76,1.91-8.22,2.87-13.39,2.87-4.9,0-9.31-.84-13.24-2.52Z"/>
  <path class="cls-1" d="M159.86,107.61c-5.35,0-10.19,2.21-13.68,5.75-1.97-.31-3.85.98-4.25,2.96-.18.92.02,1.84.45,2.6.52.89,1.41,1.54,2.49,1.75.14.02.29.04.43.05,1.84.14,3.56-1.12,3.92-3,.14-.81.04-1.61-.31-2.3,2.84-2.73,6.69-4.43,10.94-4.43,8.69,0,15.76,7.05,15.76,15.74s-7.07,15.76-15.76,15.76c-7.25,0-13.38-4.92-15.18-11.6.87-.51,1.52-1.37,1.72-2.44.33-1.72-.58-3.4-2.1-4.09-.27-.13-.54-.22-.85-.27-.92-.18-1.84,0-2.6.45-.89.51-1.54,1.39-1.75,2.48-.33,1.74.58,3.42,2.13,4.09v.02c1.99,8.46,9.56,14.75,18.64,14.75,10.57,0,19.16-8.57,19.16-19.14s-8.59-19.14-19.16-19.14ZM147.55,116.95c0,.13-.02.24-.04.36-.14.67-.63,1.21-1.23,1.45-.33.11-.67.14-1.01.07-1.05-.2-1.72-1.21-1.52-2.24.02-.11.05-.23.09-.33.11-.29.27-.52.49-.7.43-.42,1.05-.61,1.66-.49.9.18,1.54.98,1.55,1.86v.02ZM144.26,128.92c-.43.51-1.12.76-1.83.63-1.05-.2-1.72-1.21-1.52-2.24.2-1.03,1.21-1.72,2.24-1.52.38.09.7.27.98.52.45.42.67,1.07.54,1.74-.07.33-.22.61-.42.85v.02Z"/>
  <path class="cls-1" d="M195.98,120.46v-.02c-3-17.21-18.02-30.3-36.12-30.3-20.25,0-36.64,16.4-36.64,36.6s16.39,36.6,36.64,36.6c9.26,0,17.7-3.43,24.15-9.07.38.05.8.09,1.19.09,4.68,0,8.48-3.8,8.48-8.48,0-1.21-.25-2.37-.72-3.42-1.3-2.98-4.28-5.06-7.75-5.06-.67,0-1.32.07-1.93.23-3.76.87-6.54,4.23-6.54,8.24,0,.13,0,.25.02.36-4.52,3.92-10.41,6.29-16.88,6.29-14.26,0-25.83-11.55-25.83-25.79s11.57-25.79,25.83-25.79c12.62,0,23.12,9.04,25.38,20.99-1.37,1.5-2.21,3.49-2.21,5.69,0,2.02.72,3.89,1.9,5.35,1.55,1.9,3.92,3.13,6.56,3.13,1.46,0,2.84-.38,4.05-1.03l.02-.02c2.62-1.43,4.41-4.21,4.41-7.43,0-3.04-1.59-5.69-3.99-7.18ZM185.17,142.38c1.81,0,3.29,1.46,3.29,3.29s-1.48,3.27-3.29,3.27-3.29-1.46-3.29-3.27,1.46-3.29,3.29-3.29ZM191.46,130.69c-1.81,0-3.29-1.46-3.29-3.29s1.48-3.29,3.29-3.29,3.29,1.48,3.29,3.29-1.48,3.29-3.29,3.29Z"/>
  <path class="cls-1" d="M271.02,42.48c-1.56-5.15-6.75-5.65-11.13-4.95-2.76.44-4.88,2.16-5.76,4.86l-7.96,27.38c-.15.5-.61.85-1.13.85l-15.72-.02c-.82,0-1.39-.82-1.1-1.59L253.65,1.32c.29-.76,1.02-1.27,1.83-1.27l14.1-.03c.81,0,1.54.5,1.84,1.26l11.92,31.01,13.89,36.66c.3.79-.29,1.64-1.13,1.65l-15.67.02c-.54,0-1.01-.35-1.16-.86l-8.24-27.28ZM269.9,27.69c0-3.96-3.21-7.17-7.17-7.17s-7.17,3.21-7.17,7.17,3.21,7.17,7.17,7.17,7.17-3.21,7.17-7.17Z"/>
  <polygon class="cls-1" points="270.92 70.56 254.45 70.64 259.85 59.59 266.3 59.59 270.92 70.56"/>
</svg>
