<?xml version="1.0" encoding="UTF-8"?>
<svg id="Layer_1" xmlns="http://www.w3.org/2000/svg" version="1.1" viewBox="0 0 923.26 650.89">
  <!-- Generator: Adobe Illustrator 30.1.0, SVG Export Plug-In . SVG Version: 2.1.1 Build 136)  -->
  <defs>
    <style>
      .st0 {
        fill: #fff;
      }
    </style>
  </defs>
  <polygon class="st0" points="654.23 364.87 654.18 364.87 654.18 346.96 654.23 364.87"/>
  <path class="st0" d="M200.21,129.65v148.55c0,.99-.8,1.76-1.76,1.76h-26.94c-.99,0-1.76-.8-1.76-1.76v-61.16c0-.99-.8-1.76-1.76-1.76h-61.62c-.99,0-1.76.8-1.76,1.76v61.16c0,.99-.8,1.76-1.76,1.76h-26.96c-.99,0-1.76-.8-1.76-1.76v-148.55c0-.99.8-1.76,1.76-1.76h26.94c.99,0,1.76.8,1.76,1.76v59.01c0,.99.8,1.76,1.76,1.76h61.62c.99,0,1.76-.8,1.76-1.76v-59.01c0-.99.8-1.76,1.76-1.76h26.94c.99,0,1.76.8,1.76,1.76h.03Z"/>
  <path class="st0" d="M258.57,127.89c.99,0,1.76.8,1.76,1.76v92.37c0,10.32,2.7,18.2,8.06,23.67,5.37,5.44,12.91,8.19,22.66,8.19s17.5-2.72,22.87-8.19c5.37-5.44,8.06-13.33,8.06-23.67v-92.37c0-.99.8-1.76,1.76-1.76h27.17c.99,0,1.76.8,1.76,1.76v92.16c0,12.94-2.8,23.88-8.4,32.8-5.6,8.94-13.07,15.66-22.45,20.14-9.36,4.51-19.81,6.74-31.27,6.74s-21.62-2.26-30.85-6.74-16.54-11.23-21.91-20.14c-5.37-8.94-8.06-19.86-8.06-32.8v-92.16c0-.99.8-1.76,1.76-1.76h27.07Z"/>
  <path class="st0" d="M548.05,129.65v148.55c0,.99-.8,1.76-1.76,1.76h-26.94c-.99,0-1.76-.8-1.76-1.76v-88.17c0-1.94-2.7-2.49-3.42-.67l-36.89,89.55c-.29.67-.93,1.11-1.63,1.11h-20.71c-.73,0-1.37-.44-1.63-1.11l-37.1-89.57c-.73-1.79-3.42-1.24-3.42.67v88.22c0,.99-.8,1.76-1.76,1.76h-26.94c-.99,0-1.76-.8-1.76-1.76v-148.55c0-.99.8-1.76,1.76-1.76h31.71c.73,0,1.37.44,1.63,1.09l46.3,108.21c.6,1.43,2.67,1.43,3.27,0l46.22-108.21c.29-.65.93-1.09,1.63-1.09h31.5c.99,0,1.76.8,1.76,1.76h0l-.05-.03Z"/>
  <path class="st0" d="M862.08,280.02h-27.79c-.6,0-1.14-.31-1.5-.8l-65.31-98.67c-.99-1.48-3.27-.78-3.27.99v96.7c0,.99-.8,1.76-1.76,1.76h-26.94c-.99,0-1.76-.8-1.76-1.76v-148.78c0-.99.8-1.76,1.76-1.76h27.77c.6,0,1.14.31,1.5.8l65.31,98.88c.99,1.48,3.27.78,3.27-.99v-96.93c0-.99.8-1.76,1.76-1.76h26.96c.99,0,1.76.8,1.76,1.76v148.78c0,.99-.8,1.76-1.76,1.76h0v.03Z"/>
  <path class="st0" d="M167.02,457.29h46.59c.99,0,1.76.8,1.76,1.76v20.64c0,.99-.8,1.76-1.76,1.76h-77.1c-.99,0-1.76-.8-1.76-1.76v-148.55c0-.99.8-1.76,1.76-1.76h26.94c.99,0,1.76.8,1.76,1.76v124.39c0,.99.8,1.76,1.76,1.76h.05Z"/>
  <path class="st0" d="M266.14,473c-11.93-6.69-21.36-15.94-28.34-27.79-6.97-11.85-10.45-25.23-10.45-40.21s3.47-28.15,10.45-40c6.97-11.85,16.44-21.1,28.34-27.79,11.9-6.69,24.99-10.03,39.25-10.03s27.48,3.34,39.35,10.03c11.85,6.69,21.21,15.94,28.1,27.79,6.9,11.85,10.34,25.17,10.34,40s-3.47,28.39-10.34,40.21c-6.9,11.85-16.31,21.1-28.23,27.79-11.93,6.69-24.99,10.03-39.25,10.03s-27.33-3.34-39.25-10.03h.03ZM329.57,449.57c6.97-4.12,12.42-10.06,16.33-17.76,3.91-7.7,5.89-16.64,5.89-26.81s-1.97-19.08-5.89-26.7c-3.91-7.62-9.36-13.48-16.33-17.55-6.97-4.07-15.04-6.09-24.19-6.09s-17.24,2.02-24.32,6.09-12.52,9.9-16.44,17.55c-3.91,7.62-5.89,16.54-5.89,26.7s1.97,19.11,5.89,26.81,9.38,13.61,16.44,17.76c7.05,4.12,15.14,6.22,24.32,6.22s17.21-2.07,24.19-6.22Z"/>
  <path class="st0" d="M682.1,399.32c-3.86,7.13-9.9,12.86-18.1,17.21-8.19,4.36-18.56,6.53-31.06,6.53h-23.72c-.99,0-1.76.8-1.76,1.76v54.86c0,.99-.8,1.76-1.76,1.76h-26.94c-.99,0-1.76-.8-1.76-1.76v-148.55c0-.99.8-1.76,1.76-1.76h54.24c11.77,0,21.8,2.02,30.07,6.09,8.3,4.07,14.49,9.67,18.64,16.77,4.12,7.13,6.22,15.19,6.22,24.19,0,8.14-1.92,15.76-5.78,22.87h0l-.05.03ZM650.4,392.69c4.07-3.86,6.09-9.26,6.09-16.23,0-14.83-8.3-22.22-24.84-22.22h-22.43c-.99,0-1.76.8-1.76,1.76v40.7c0,.99.8,1.76,1.76,1.76h22.43c8.43,0,14.67-1.92,18.74-5.78h0Z"/>
  <path class="st0" d="M733.31,477.57c-8.5-3.63-15.22-8.84-20.14-15.68-4.61-6.35-7.13-13.82-7.57-22.32-.05-1.01.78-1.87,1.79-1.87h29.24c.91,0,1.63.7,1.76,1.61.67,5.5,2.83,9.9,6.48,13.22,3.99,3.63,9.49,5.44,16.44,5.44s12.7-1.71,16.77-5.13c4.07-3.42,6.09-7.88,6.09-13.4,0-4.51-1.37-8.19-4.12-11.12-2.77-2.9-6.22-5.19-10.34-6.87s-9.85-3.53-17.11-5.57c-9.9-2.9-17.89-5.78-24.08-8.61-6.17-2.83-11.46-7.13-15.92-12.86-4.43-5.73-6.64-13.4-6.64-23,0-9,2.26-16.85,6.74-23.54s10.81-11.8,18.95-15.37c8.14-3.55,17.45-5.34,27.9-5.34,15.68,0,28.44,3.81,38.24,11.46,9.33,7.26,14.67,17.24,16.05,29.94.1,1.04-.73,1.97-1.79,1.97h-30c-.91,0-1.63-.7-1.76-1.61-.62-4.51-2.77-8.32-6.48-11.36-4.12-3.42-9.64-5.13-16.44-5.13-5.96,0-10.71,1.53-14.28,4.56-3.58,3.06-5.34,7.49-5.34,13.3,0,4.07,1.35,7.44,4.02,10.14s6.01,4.87,10.03,6.53c4.02,1.66,9.64,3.6,16.88,5.78,9.88,2.9,17.94,5.83,24.19,8.71,6.25,2.9,11.61,7.28,16.13,13.07,4.9,6.33,7.16,14.78,6.71,25.38-.08,1.58-.23,3.19-.52,4.72-2.75,14.57-10.81,25.25-24.27,32.1-8.14,4.12-17.78,6.22-28.98,6.22-10.6,0-20.14-1.81-28.65-5.44v.05l.03.03Z"/>
  <path class="st0" d="M477.76,359.45c-11.59,0-22.06,4.8-29.61,12.44-4.25-.67-8.32,2.13-9.2,6.4-.39,2,.05,3.99.99,5.63,1.11,1.92,3.06,3.34,5.39,3.79.31.05.62.08.93.1,3.99.31,7.7-2.44,8.48-6.48.31-1.76.08-3.47-.67-4.98,6.14-5.91,14.49-9.59,23.67-9.59,18.8,0,34.12,15.27,34.12,34.07s-15.3,34.12-34.12,34.12c-15.68,0-28.96-10.66-32.85-25.1,1.89-1.11,3.29-2.96,3.73-5.29.73-3.73-1.24-7.36-4.54-8.84-.6-.29-1.17-.47-1.84-.6-2-.39-3.99,0-5.63.99-1.92,1.11-3.34,3.01-3.79,5.37-.73,3.76,1.24,7.41,4.61,8.84v.05c4.3,18.3,20.69,31.91,40.34,31.91,22.87,0,41.48-18.54,41.48-41.43s-18.59-41.43-41.48-41.43h0l-.03.03ZM451.11,379.65c0,.29-.05.52-.08.78-.31,1.45-1.37,2.62-2.67,3.14-.73.23-1.45.31-2.18.16-2.28-.44-3.73-2.62-3.29-4.85.05-.23.1-.49.21-.73.23-.62.6-1.11,1.06-1.5.93-.91,2.28-1.32,3.6-1.06,1.94.39,3.34,2.13,3.34,4.02v.05h0ZM444.01,405.57c-.93,1.11-2.44,1.63-3.97,1.37-2.28-.44-3.73-2.62-3.29-4.85s2.62-3.73,4.85-3.29c.83.21,1.5.6,2.13,1.11.99.91,1.45,2.31,1.17,3.76-.16.73-.47,1.32-.91,1.84v.05h.03Z"/>
  <path class="st0" d="M555.93,387.24v-.05c-6.48-37.25-38.99-65.59-78.19-65.59-43.84,0-79.31,35.49-79.31,79.23s35.47,79.23,79.31,79.23c20.04,0,38.32-7.41,52.27-19.63.83.1,1.74.21,2.57.21,10.14,0,18.36-8.22,18.36-18.36,0-2.62-.54-5.13-1.56-7.41-2.83-6.46-9.26-10.94-16.77-10.94-1.45,0-2.85.16-4.17.49-8.14,1.89-14.16,9.15-14.16,17.84,0,.29,0,.54.05.78-9.77,8.48-22.53,13.61-36.53,13.61-30.88,0-55.89-24.99-55.89-55.82s25.04-55.82,55.89-55.82c27.33,0,50.04,19.57,54.94,45.42-2.96,3.24-4.8,7.54-4.8,12.31,0,4.38,1.56,8.43,4.12,11.59,3.34,4.12,8.48,6.77,14.21,6.77,3.16,0,6.14-.83,8.76-2.23l.05-.05c5.68-3.09,9.54-9.1,9.54-16.07,0-6.58-3.45-12.31-8.63-15.53l-.05.05v-.03ZM532.54,434.69c3.91,0,7.13,3.16,7.13,7.13s-3.21,7.08-7.13,7.08-7.13-3.16-7.13-7.08,3.16-7.13,7.13-7.13ZM546.15,409.38c-3.91,0-7.13-3.16-7.13-7.13s3.21-7.13,7.13-7.13,7.13,3.21,7.13,7.13-3.21,7.13-7.13,7.13Z"/>
  <path class="st0" d="M660.61,219.61c-3.37-11.15-14.62-12.24-24.08-10.71-5.96.96-10.55,4.67-12.47,10.53l-17.24,59.26c-.34,1.09-1.32,1.84-2.44,1.84l-34.01-.05c-1.76,0-3.01-1.76-2.39-3.45l55.04-146.5c.62-1.63,2.2-2.75,3.97-2.75l30.51-.08c1.76,0,3.34,1.09,3.99,2.72l25.8,67.12,30.07,79.36c.65,1.71-.62,3.55-2.44,3.58l-33.91.05c-1.17,0-2.18-.75-2.51-1.87l-17.84-59.06h-.05ZM658.18,187.59c0-8.58-6.95-15.53-15.53-15.53s-15.53,6.95-15.53,15.53,6.95,15.53,15.53,15.53,15.53-6.95,15.53-15.53Z"/>
  <polygon class="st0" points="660.41 280.38 624.76 280.56 636.42 256.63 650.4 256.63 660.41 280.38"/>
</svg>